<svg id="svg" version="1.1" width="400" height="400" viewBox="0 0 400 400" xmlns="http://www.w3.org/2000/svg" xmlns:xlink="http://www.w3.org/1999/xlink" ><g id="svgg"><path id="path0" d="M187.610 15.631 C 46.388 24.979,-33.022 184.191,44.428 302.705 C 123.191 423.227,303.627 411.996,367.166 282.617 C 429.825 155.031,329.748 6.223,187.610 15.631 M217.693 18.543 C 346.074 31.520,421.644 168.210,364.038 283.252 C 314.714 381.755,190.210 414.775,98.438 353.693 C 2.827 290.056,-11.366 155.045,68.941 73.104 C 102.387 38.977,143.035 20.769,192.383 17.808 C 196.849 17.540,212.169 17.985,217.693 18.543 M186.719 25.432 C 85.934 33.388,12.444 123.772,25.406 223.828 C 37.887 320.162,126.510 388.364,222.846 375.773 C 329.681 361.809,399.115 255.814,369.321 152.170 C 346.387 72.392,269.333 18.911,186.719 25.432 M203.906 42.295 L 208.008 48.627 208.115 42.282 L 208.222 35.938 210.752 35.938 L 213.281 35.938 213.281 47.266 L 213.281 58.594 211.035 58.592 L 208.789 58.589 204.688 52.312 L 200.586 46.036 200.479 52.315 L 200.371 58.594 197.842 58.594 L 195.313 58.594 195.313 47.266 L 195.313 35.938 197.559 35.950 L 199.805 35.963 203.906 42.295 M184.370 38.203 C 187.445 40.102,188.760 43.942,188.833 51.234 C 188.941 61.931,174.494 63.690,172.131 53.267 C 170.965 48.122,170.862 43.694,171.862 41.629 C 174.033 37.145,180.008 35.508,184.370 38.203 M164.804 40.332 C 164.986 40.815,165.254 41.760,165.400 42.432 L 165.666 43.652 163.091 44.349 C 159.732 45.258,159.778 44.469,162.509 54.328 C 163.824 59.078,164.844 63.019,164.774 63.087 C 164.705 63.154,163.645 63.471,162.418 63.790 L 160.188 64.371 159.617 62.361 C 159.304 61.256,158.210 57.275,157.188 53.516 C 156.165 49.756,155.304 46.639,155.275 46.589 C 155.246 46.539,154.022 46.842,152.555 47.261 C 149.405 48.162,149.442 48.176,148.859 45.858 C 148.299 43.635,147.310 44.194,156.250 41.677 C 165.351 39.114,164.401 39.264,164.804 40.332 M177.146 42.259 L 176.062 43.112 176.298 47.239 C 176.681 53.952,177.536 55.646,180.541 55.646 C 183.712 55.646,184.568 53.178,183.581 46.875 C 182.745 41.534,180.299 39.779,177.146 42.259 M248.039 43.066 C 252.511 45.352,252.558 50.380,248.126 52.447 C 247.116 52.919,246.222 53.346,246.139 53.397 C 246.057 53.448,246.395 54.576,246.892 55.904 L 247.794 58.317 248.604 57.340 C 249.050 56.802,249.590 56.067,249.805 55.706 C 250.265 54.932,253.906 55.900,253.906 56.796 C 253.906 57.481,251.841 60.588,250.674 61.658 L 249.676 62.574 250.840 65.311 C 252.250 68.623,252.319 68.535,249.111 67.492 C 246.936 66.785,246.443 66.460,246.116 65.520 C 245.786 64.576,245.580 64.441,244.834 64.685 C 235.427 67.758,229.544 55.125,238.617 51.334 C 239.629 50.911,239.866 50.629,239.653 50.100 C 237.420 44.560,242.547 40.260,248.039 43.066 M244.219 46.563 C 243.663 47.118,243.617 48.403,244.124 49.205 C 244.686 50.094,246.643 49.263,246.814 48.061 C 247.026 46.573,245.239 45.542,244.219 46.563 M144.922 57.298 C 150.185 69.035,149.919 67.752,147.336 68.949 L 145.257 69.912 143.678 66.499 C 142.809 64.622,141.946 62.687,141.759 62.199 C 141.437 61.358,141.354 61.341,140.143 61.865 C 137.855 62.856,134.963 64.162,134.853 64.254 C 134.794 64.303,135.556 66.136,136.546 68.327 C 138.613 72.897,138.602 73.060,136.138 74.001 C 133.862 74.870,134.488 75.761,129.329 64.308 C 124.477 53.534,124.555 53.967,127.254 52.845 L 129.195 52.039 130.875 55.805 C 133.050 60.682,132.696 60.469,136.138 58.957 C 139.887 57.309,139.764 57.756,137.698 53.305 C 135.572 48.724,135.580 49.162,137.598 48.148 C 140.316 46.782,140.065 46.469,144.922 57.298 M239.585 55.264 C 236.842 57.185,239.570 61.549,242.959 60.663 C 243.957 60.402,243.963 60.467,242.679 57.325 C 241.551 54.566,241.054 54.235,239.585 55.264 M281.820 57.321 C 283.589 58.390,283.902 58.887,283.249 59.590 C 283.059 59.794,282.009 61.401,280.916 63.161 L 278.929 66.362 281.861 68.142 C 285.508 70.356,285.031 70.468,287.184 66.895 C 290.162 61.951,289.758 62.214,292.131 63.674 C 294.055 64.858,294.142 64.979,293.630 65.766 C 293.331 66.226,290.667 70.557,287.709 75.391 C 284.751 80.225,282.283 84.234,282.224 84.300 C 281.951 84.605,278.099 81.884,278.252 81.495 C 278.348 81.253,279.406 79.473,280.604 77.539 C 283.064 73.568,283.159 73.990,279.275 71.589 L 276.714 70.005 274.263 74.042 L 271.812 78.079 269.890 76.897 C 268.833 76.246,267.969 75.533,267.969 75.311 C 267.969 74.724,279.378 56.250,279.740 56.250 C 279.909 56.250,280.844 56.732,281.820 57.321 M116.528 62.988 C 115.898 66.188,115.883 66.208,114.112 66.247 C 108.465 66.371,108.928 72.599,115.032 78.613 C 117.937 81.476,122.626 77.812,120.689 74.193 C 120.163 73.209,119.781 73.240,118.073 74.400 C 116.510 75.462,116.739 75.571,115.072 72.977 L 114.400 71.931 118.016 69.499 L 121.633 67.067 122.675 68.316 C 128.033 74.734,126.001 82.299,118.452 84.035 C 113.994 85.061,109.896 81.761,105.915 73.941 C 103.042 68.298,107.546 61.777,114.346 61.734 L 116.777 61.719 116.528 62.988 M217.188 70.470 C 267.461 77.499,308.686 111.404,324.810 158.984 C 325.721 161.670,326.582 164.408,326.725 165.070 C 326.978 166.237,327.126 166.310,331.755 167.562 C 347.642 171.861,366.043 179.321,367.741 182.152 C 369.417 184.949,363.619 184.393,341.307 179.619 C 335.130 178.297,329.992 177.300,329.890 177.402 C 329.787 177.505,330.088 180.038,330.559 183.032 C 332.333 194.310,331.737 214.897,329.295 226.769 C 314.882 296.816,248.775 342.559,178.628 331.025 C 117.195 320.923,71.339 269.195,68.494 206.789 L 68.243 201.273 59.024 201.065 C 41.823 200.677,31.250 197.288,31.250 192.165 C 31.250 190.770,30.729 190.878,41.406 190.061 C 47.985 189.557,68.690 187.238,69.011 186.968 C 69.047 186.938,69.279 185.419,69.525 183.593 C 77.704 123.034,126.351 76.166,187.500 69.934 C 192.781 69.395,211.983 69.742,217.188 70.470 M305.573 74.060 C 310.690 76.635,312.249 81.978,309.215 86.547 C 303.892 94.565,298.842 96.975,293.843 93.885 C 287.660 90.062,287.950 84.593,294.714 77.473 C 298.952 73.011,301.745 72.133,305.573 74.060 M102.156 82.662 C 106.146 87.306,109.358 91.228,109.295 91.377 C 109.232 91.527,108.443 92.309,107.542 93.115 L 105.905 94.581 98.436 85.865 L 90.967 77.148 92.651 75.685 C 93.578 74.880,94.463 74.220,94.619 74.220 C 94.774 74.219,98.166 78.018,102.156 82.662 M300.781 78.301 C 298.584 79.507,294.141 85.457,294.141 87.194 C 294.141 89.808,297.411 91.437,299.651 89.939 C 301.034 89.014,304.944 84.471,305.665 82.950 C 307.161 79.799,303.830 76.629,300.781 78.301 M320.367 87.584 L 321.127 88.644 317.549 94.537 C 315.581 97.778,314.050 100.508,314.146 100.605 C 314.243 100.701,317.081 99.550,320.455 98.046 C 323.828 96.543,326.744 95.313,326.935 95.313 C 327.309 95.313,330.078 98.412,330.078 98.830 C 330.078 99.068,308.677 108.222,308.152 108.209 C 308.016 108.206,307.431 107.582,306.852 106.823 L 305.799 105.442 311.786 95.127 L 317.773 84.813 318.691 85.668 C 319.195 86.139,319.949 87.001,320.367 87.584 M87.711 86.672 C 90.588 87.978,92.154 90.747,91.714 93.748 C 91.593 94.572,91.723 94.969,92.158 95.104 C 92.497 95.210,94.772 95.819,97.215 96.457 C 99.657 97.096,101.713 97.676,101.783 97.746 C 101.853 97.816,101.085 98.796,100.076 99.923 L 98.242 101.972 93.452 100.580 L 88.661 99.188 87.749 100.248 L 86.837 101.309 89.239 103.556 C 90.561 104.793,92.034 106.124,92.514 106.515 L 93.387 107.227 91.713 109.093 L 90.039 110.958 81.770 103.428 C 77.223 99.287,73.487 95.721,73.470 95.504 C 73.452 95.287,75.058 93.372,77.038 91.248 C 81.908 86.024,84.160 85.059,87.711 86.672 M81.769 92.676 L 79.600 94.727 81.695 96.608 L 83.789 98.490 85.441 96.608 C 87.463 94.305,87.664 92.680,86.080 91.435 C 84.601 90.271,84.185 90.391,81.769 92.676 M338.429 110.621 L 342.561 116.945 340.910 118.041 C 338.755 119.471,339.174 119.739,335.955 114.870 L 333.131 110.599 331.190 111.793 C 328.966 113.161,328.955 113.004,331.559 116.893 C 332.602 118.452,333.578 119.935,333.728 120.191 C 333.970 120.602,330.596 123.362,330.311 122.987 C 330.255 122.912,329.192 121.270,327.949 119.336 C 326.707 117.402,325.635 115.759,325.568 115.685 C 325.475 115.582,322.513 117.436,321.533 118.211 C 321.452 118.275,322.659 120.296,324.214 122.703 L 327.042 127.078 326.118 127.779 C 324.453 129.044,323.407 129.487,323.119 129.050 C 317.288 120.190,315.182 116.693,315.493 116.382 C 316.232 115.643,333.411 104.364,333.848 104.331 C 334.095 104.312,336.157 107.143,338.429 110.621 M70.988 106.626 C 72.753 107.428,74.215 109.347,74.217 110.866 C 74.219 111.638,74.348 111.725,75.098 111.455 C 80.052 109.674,85.041 115.579,82.609 120.346 C 81.483 122.553,76.781 129.682,76.449 129.685 C 76.279 129.686,71.932 126.946,66.790 123.596 L 57.441 117.505 58.300 116.012 C 63.503 106.971,66.638 104.652,70.988 106.626 M66.935 111.236 C 66.689 111.394,65.856 112.483,65.084 113.656 L 63.681 115.788 65.433 116.878 C 67.700 118.289,67.679 118.294,69.100 116.079 C 71.168 112.857,69.662 109.488,66.935 111.236 M74.337 116.504 C 72.467 118.560,71.301 120.764,71.895 121.119 C 72.206 121.305,73.194 121.904,74.090 122.451 L 75.720 123.445 77.118 121.144 C 78.736 118.480,78.846 117.526,77.661 116.421 C 76.544 115.381,75.330 115.412,74.337 116.504 M292.154 162.150 C 279.597 163.150,264.580 168.570,240.502 180.794 C 228.651 186.810,228.478 186.915,229.312 187.591 C 230.970 188.933,239.707 194.327,243.255 196.198 C 247.181 198.269,247.368 198.422,246.896 199.185 C 246.117 200.445,239.053 196.452,223.828 186.146 C 187.555 161.593,184.401 160.326,167.383 163.469 C 157.832 165.233,150.021 167.386,122.266 175.902 C 88.059 186.397,69.149 190.051,36.797 192.416 L 33.164 192.682 34.063 193.645 C 40.312 200.347,62.464 201.100,106.055 196.091 C 152.888 190.709,160.516 191.328,174.512 201.639 C 177.922 204.151,176.731 205.298,173.169 202.932 L 170.972 201.474 163.904 203.286 C 160.017 204.282,154.199 205.781,150.977 206.616 C 136.887 210.268,122.633 210.653,100.195 207.985 C 82.304 205.859,80.663 206.249,80.665 212.628 C 80.670 224.439,97.533 237.484,113.672 238.162 L 118.555 238.367 125.752 235.968 C 144.653 229.667,147.581 229.677,180.000 236.147 C 220.259 244.183,226.683 243.810,265.234 231.203 C 276.339 227.571,282.881 225.834,290.193 224.574 L 295.425 223.673 294.122 222.585 C 292.283 221.050,289.657 220.286,284.456 219.771 C 279.206 219.251,279.491 218.642,285.311 217.945 C 293.886 216.917,296.111 216.262,297.435 214.371 C 298.450 212.922,298.134 212.364,295.616 211.170 C 294.300 210.546,291.126 208.436,288.563 206.482 C 278.018 198.444,274.665 196.754,266.887 195.551 L 263.986 195.102 268.614 192.325 C 271.159 190.797,275.615 188.108,278.516 186.348 C 290.463 179.099,304.778 172.822,310.415 172.361 C 313.295 172.125,314.351 172.309,331.641 176.047 C 354.821 181.059,364.266 182.810,365.645 182.350 C 366.985 181.904,353.258 175.812,344.336 172.894 C 321.290 165.356,301.937 161.372,292.154 162.150 M278.117 209.233 L 279.341 210.263 278.269 211.381 C 276.871 212.841,274.899 212.898,273.242 211.526 L 272.070 210.555 273.346 209.379 C 274.954 207.897,276.473 207.850,278.117 209.233 M146.924 333.433 C 147.935 333.947,147.948 334.005,147.789 337.387 C 147.700 339.276,147.474 344.745,147.286 349.542 C 146.891 359.657,147.173 358.865,144.365 357.731 L 142.147 356.836 142.243 354.695 L 142.338 352.553 138.799 351.041 L 135.260 349.528 133.743 351.141 L 132.227 352.754 129.981 351.865 C 127.229 350.776,126.465 352.076,136.113 341.440 C 144.857 331.800,144.390 332.145,146.924 333.433 M260.606 343.526 C 262.735 349.508,264.428 354.441,264.368 354.489 C 263.814 354.921,260.350 355.784,260.010 355.574 C 259.768 355.425,256.966 353.302,253.783 350.855 C 250.599 348.408,247.940 346.468,247.872 346.543 C 247.805 346.618,248.686 349.229,249.832 352.344 C 250.977 355.459,251.923 358.203,251.934 358.442 C 251.951 358.819,247.683 360.741,247.459 360.458 C 247.251 360.194,239.844 339.086,239.844 338.757 C 239.844 338.271,243.247 336.978,243.860 337.233 C 244.122 337.341,246.969 339.456,250.187 341.933 C 253.405 344.410,256.093 346.381,256.160 346.314 C 256.254 346.220,253.408 337.993,252.121 334.640 C 251.907 334.081,255.518 332.320,256.395 332.557 C 256.582 332.607,258.477 337.543,260.606 343.526 M162.861 338.739 C 165.290 339.300,165.299 338.450,162.751 349.100 L 160.675 357.770 165.548 358.953 C 168.229 359.603,170.488 360.202,170.570 360.284 C 170.835 360.549,169.868 364.453,169.538 364.453 C 169.210 364.453,158.745 361.987,156.193 361.308 L 154.769 360.929 155.472 358.101 C 155.859 356.546,157.087 351.450,158.201 346.777 C 159.315 342.104,160.373 338.281,160.552 338.281 C 160.731 338.281,161.770 338.487,162.861 338.739 M140.669 343.202 C 139.297 344.805,138.242 346.168,138.325 346.230 C 138.664 346.484,142.707 348.047,142.782 347.953 C 142.880 347.829,143.324 340.224,143.230 340.261 C 143.194 340.275,142.041 341.599,140.669 343.202 M230.763 342.142 C 234.159 343.883,236.328 349.562,236.328 356.707 C 236.328 365.717,222.772 368.007,219.772 359.504 C 218.885 356.988,217.852 350.136,218.069 348.206 C 218.686 342.732,225.534 339.461,230.763 342.142 M186.133 342.991 C 192.043 343.501,193.420 343.871,194.892 345.343 C 197.220 347.670,197.381 351.296,195.264 353.707 L 194.082 355.053 195.172 356.483 C 197.738 359.846,195.865 364.999,191.561 366.420 C 190.348 366.820,179.709 366.316,178.906 365.820 C 178.786 365.746,179.080 360.882,179.559 355.011 C 180.038 349.140,180.439 343.940,180.449 343.457 C 180.472 342.440,180.100 342.470,186.133 342.991 M210.021 352.344 C 210.268 357.178,210.488 362.391,210.509 363.929 L 210.547 366.725 208.301 366.878 C 207.065 366.962,205.972 366.969,205.871 366.893 C 205.694 366.760,204.775 349.999,204.716 345.829 C 204.684 343.540,204.881 343.392,207.813 343.494 L 209.570 343.555 210.021 352.344 M224.006 346.662 C 221.750 348.918,223.798 359.179,226.695 360.135 C 229.397 361.027,231.417 359.290,231.334 356.143 C 231.114 347.778,227.528 343.139,224.006 346.662 M184.948 349.718 C 184.625 352.506,184.418 352.316,187.871 352.408 C 193.501 352.560,193.606 348.205,187.984 347.690 L 185.213 347.436 184.948 349.718 M184.202 359.062 C 183.870 361.996,184.050 362.149,187.682 362.015 C 193.436 361.802,192.903 357.428,187.060 356.909 L 184.472 356.679 184.202 359.062 " stroke="none" fill="#ffffff" fill-rule="evenodd"></path><path id="path1" d="M186.719 18.386 C 76.709 26.608,-1.265 129.314,20.517 237.305 C 40.025 334.019,132.669 397.899,230.078 381.801 C 326.944 365.793,394.051 275.810,381.829 178.320 C 369.730 81.817,283.523 11.152,186.719 18.386 M216.016 25.414 C 315.674 34.647,388.137 125.129,374.978 223.906 C 361.746 323.238,268.876 391.869,170.517 375.004 C 63.332 356.625,-1.805 246.956,33.237 143.869 C 59.227 67.410,135.533 17.958,216.016 25.414 M195.703 47.266 L 195.703 58.594 197.842 58.594 L 199.982 58.594 200.088 51.855 L 200.195 45.117 204.630 51.855 L 209.065 58.594 210.978 58.594 L 212.891 58.594 212.891 47.266 L 212.891 35.938 210.751 35.938 L 208.612 35.938 208.505 42.676 L 208.398 49.414 203.917 42.676 L 199.435 35.938 197.569 35.938 L 195.703 35.938 195.703 47.266 M176.656 37.610 C 171.661 39.502,170.185 45.170,172.463 53.711 C 174.874 62.751,188.136 61.524,188.606 52.217 C 189.160 41.232,183.940 34.851,176.656 37.610 M156.445 41.863 C 148.335 44.116,148.639 43.940,149.205 46.044 C 149.703 47.892,149.628 47.872,152.770 46.998 C 155.695 46.185,155.216 45.398,158.002 55.590 C 159.246 60.142,160.311 63.923,160.368 63.992 C 160.516 64.171,163.804 63.204,164.197 62.866 C 164.379 62.710,163.456 58.696,162.146 53.946 C 160.837 49.196,159.766 45.244,159.766 45.164 C 159.766 45.083,160.996 44.699,162.500 44.309 C 165.426 43.550,165.441 43.531,164.823 41.309 C 164.330 39.534,164.985 39.490,156.445 41.863 M182.052 42.092 C 184.396 44.187,185.067 53.211,183.010 54.980 C 179.311 58.162,176.615 55.094,175.934 46.928 C 175.496 41.676,178.727 39.122,182.052 42.092 M242.592 42.689 C 239.949 43.617,238.694 47.332,239.990 50.391 C 240.171 50.816,239.760 51.173,238.489 51.695 C 230.163 55.112,234.838 66.424,243.816 64.584 C 245.800 64.178,245.816 64.183,246.232 65.283 C 246.565 66.165,247.124 66.551,248.979 67.177 C 251.862 68.151,251.816 68.211,250.544 65.113 L 249.491 62.551 251.270 60.573 C 254.104 57.420,254.262 56.451,252.042 55.830 C 250.409 55.372,250.209 55.391,249.830 56.040 C 249.601 56.432,249.054 57.188,248.613 57.719 L 247.813 58.686 246.757 56.198 C 245.438 53.091,245.392 53.350,247.402 52.582 C 254.591 49.837,249.873 40.133,242.592 42.689 M246.883 46.890 C 247.621 48.270,246.298 50.000,244.503 50.000 C 243.809 50.000,243.277 47.953,243.718 46.984 C 244.256 45.804,246.270 45.744,246.883 46.890 M138.294 48.117 C 137.334 48.530,136.478 48.938,136.393 49.024 C 136.179 49.237,136.781 50.824,138.436 54.413 L 139.841 57.459 136.456 59.015 C 132.545 60.814,132.962 61.019,130.841 56.250 C 129.934 54.209,129.155 52.493,129.109 52.437 C 129.039 52.350,125.383 53.854,125.097 54.088 C 125.021 54.150,133.886 74.049,134.204 74.530 C 134.246 74.593,135.137 74.245,136.183 73.756 C 137.230 73.267,138.134 72.845,138.193 72.817 C 138.252 72.790,137.431 70.853,136.368 68.513 L 134.436 64.258 137.572 62.793 C 141.674 60.878,141.364 60.745,143.352 65.261 C 145.410 69.938,145.203 69.764,147.435 68.679 C 149.635 67.611,149.986 69.060,144.719 57.439 C 139.438 45.787,140.415 47.204,138.294 48.117 M242.914 57.275 C 244.288 60.649,244.242 60.938,242.334 60.938 C 238.266 60.938,236.657 56.598,240.039 54.748 C 241.407 54.000,241.675 54.235,242.914 57.275 M277.014 60.663 C 275.527 63.070,272.895 67.324,271.165 70.117 C 267.755 75.621,267.786 75.361,270.357 76.892 L 271.769 77.733 274.017 74.017 C 276.730 69.534,276.550 69.659,278.501 70.884 C 279.368 71.429,280.777 72.314,281.632 72.851 L 283.185 73.827 280.851 77.618 C 279.566 79.702,278.516 81.541,278.516 81.703 C 278.516 82.037,282.003 84.158,282.183 83.934 C 282.460 83.589,293.750 65.144,293.750 65.037 C 293.750 64.889,290.358 62.891,290.107 62.891 C 290.005 62.891,288.917 64.517,287.687 66.504 C 286.458 68.491,285.390 70.186,285.314 70.270 C 285.115 70.491,278.906 66.658,278.906 66.314 C 278.906 66.155,279.873 64.469,281.055 62.568 C 283.638 58.411,283.620 58.645,281.460 57.340 L 279.717 56.287 277.014 60.663 M110.742 62.643 C 104.967 65.354,103.738 69.953,107.233 75.773 C 111.818 83.406,115.366 85.413,120.313 83.170 C 126.187 80.507,127.141 75.390,122.939 69.082 L 121.729 67.266 118.286 69.580 C 114.226 72.310,114.388 71.786,116.635 74.932 C 116.684 75.001,117.464 74.570,118.367 73.972 C 120.176 72.775,120.786 73.053,121.359 75.334 C 121.851 77.296,119.331 80.078,117.061 80.078 C 114.844 80.078,109.038 71.564,109.578 69.104 C 109.937 67.472,112.000 66.016,113.955 66.016 C 115.506 66.016,115.540 65.986,115.990 64.196 C 116.680 61.456,114.590 60.837,110.742 62.643 M193.359 69.764 C 140.040 73.379,96.455 105.019,77.332 153.993 C 73.733 163.208,69.531 180.416,69.531 185.938 C 69.531 186.834,69.325 187.090,68.457 187.267 C 65.154 187.945,45.856 190.058,35.156 190.914 L 31.445 191.211 31.527 192.348 C 31.887 197.320,42.400 200.458,60.645 201.038 L 68.750 201.296 68.750 205.294 C 68.750 246.313,93.617 289.731,130.139 312.478 C 212.295 363.648,319.184 312.243,330.722 216.016 C 331.984 205.485,331.452 187.042,329.651 178.952 C 329.135 176.634,328.329 176.613,340.690 179.240 C 356.351 182.568,359.894 183.219,363.760 183.479 C 376.111 184.309,355.821 174.319,332.227 167.954 C 326.772 166.482,326.905 166.581,325.975 163.281 C 310.084 106.864,251.847 65.797,193.359 69.764 M298.941 74.013 C 296.501 75.075,290.568 82.076,289.850 84.742 C 288.213 90.823,295.378 96.873,301.282 94.394 C 304.322 93.117,310.183 85.680,310.466 82.740 C 311.047 76.691,304.385 71.646,298.941 74.013 M92.979 75.685 L 91.298 77.178 98.444 85.561 C 102.374 90.173,105.640 94.007,105.700 94.083 C 105.760 94.159,106.597 93.563,107.559 92.759 L 109.309 91.296 102.249 83.050 C 98.366 78.515,95.071 74.667,94.925 74.499 C 94.780 74.330,93.904 74.864,92.979 75.685 M305.471 79.193 C 307.164 81.345,306.140 83.728,301.449 88.558 C 296.415 93.740,291.284 89.125,295.711 83.398 C 300.281 77.487,303.155 76.249,305.471 79.193 M311.967 95.235 C 305.726 106.023,305.674 106.180,307.861 107.546 C 308.558 107.981,329.677 99.371,329.684 98.649 C 329.686 98.443,329.056 97.628,328.284 96.838 L 326.881 95.401 320.179 98.431 C 316.492 100.098,313.416 101.409,313.342 101.345 C 313.268 101.281,314.894 98.455,316.955 95.066 C 321.276 87.963,321.138 88.473,319.238 86.623 L 317.773 85.197 311.967 95.235 M82.191 86.884 C 81.096 87.361,76.958 91.373,74.500 94.340 L 73.526 95.515 81.774 103.034 L 90.021 110.553 91.593 108.981 L 93.164 107.408 89.844 104.330 L 86.523 101.253 87.624 100.089 L 88.725 98.925 93.439 100.313 L 98.152 101.702 99.949 99.801 L 101.745 97.899 96.576 96.544 L 91.406 95.189 91.406 92.725 C 91.406 87.918,86.687 84.927,82.191 86.884 M86.596 91.474 C 87.997 92.790,87.755 94.143,85.678 96.613 L 83.857 98.780 81.772 96.999 C 79.239 94.834,79.238 94.819,81.528 92.494 C 83.634 90.356,85.093 90.062,86.596 91.474 M324.551 110.505 L 315.313 116.646 319.416 122.950 L 323.519 129.254 325.041 128.247 C 326.946 126.986,327.048 127.462,323.811 122.490 C 322.298 120.165,321.111 118.223,321.174 118.174 C 321.237 118.125,322.244 117.449,323.412 116.673 L 325.535 115.261 328.017 118.972 L 330.498 122.683 331.685 121.986 C 333.824 120.730,333.815 120.612,331.277 116.837 C 328.443 112.622,328.491 113.213,330.865 111.752 C 333.428 110.176,333.048 109.965,336.087 114.648 C 339.193 119.436,338.852 119.306,342.121 116.957 C 342.265 116.854,334.079 104.278,333.902 104.331 C 333.840 104.349,329.632 107.128,324.551 110.505 M65.194 107.129 C 64.092 107.859,57.886 116.382,57.829 117.244 C 57.815 117.464,62.022 120.275,73.309 127.585 L 76.501 129.652 79.335 125.306 C 82.472 120.494,83.369 118.386,83.034 116.614 C 82.338 112.931,78.461 110.477,75.260 111.694 C 74.376 112.030,74.276 111.954,74.052 110.757 C 73.330 106.908,68.510 104.933,65.194 107.129 M69.674 111.356 C 71.051 112.439,70.972 113.462,69.306 116.126 C 67.676 118.731,67.978 118.626,65.792 117.346 C 63.497 116.000,63.469 115.915,64.667 113.871 C 66.516 110.716,67.947 109.998,69.674 111.356 M78.134 116.702 C 78.559 117.242,78.906 117.869,78.906 118.096 C 78.906 118.990,75.681 123.813,75.250 123.563 C 74.837 123.323,71.455 121.095,71.156 120.865 C 71.083 120.809,71.757 119.684,72.652 118.365 C 74.879 115.086,76.481 114.600,78.134 116.702 M183.238 162.462 C 191.159 164.496,197.913 168.403,224.877 186.549 C 240.279 196.914,246.886 200.588,246.870 198.779 C 246.868 198.484,245.066 197.316,242.866 196.185 C 238.894 194.141,227.893 187.211,228.174 186.930 C 229.272 185.832,252.133 174.578,260.742 170.897 C 287.362 159.514,298.448 159.253,333.008 169.190 C 348.399 173.615,366.406 180.780,366.406 182.477 C 366.406 183.494,355.443 181.489,327.734 175.403 C 315.680 172.756,312.167 172.237,309.366 172.688 C 302.189 173.844,287.731 180.638,274.219 189.206 C 272.178 190.500,269.224 192.293,267.654 193.190 C 264.816 194.813,264.650 195.313,266.951 195.313 C 271.499 195.313,278.653 198.747,286.550 204.720 C 293.961 210.327,296.038 211.564,298.633 211.918 C 309.406 213.386,317.578 218.496,317.578 223.764 L 317.578 224.897 315.332 224.372 C 303.545 221.616,288.746 223.769,264.063 231.832 C 241.929 239.062,229.009 241.811,216.992 241.847 C 208.838 241.872,203.454 241.084,180.664 236.527 C 147.713 229.939,144.746 229.898,127.065 235.786 C 116.671 239.248,112.396 239.446,104.154 236.848 C 89.886 232.349,77.248 217.644,80.782 209.654 C 82.333 206.148,85.642 205.896,102.539 207.999 C 121.833 210.400,141.293 209.557,153.430 205.794 C 154.874 205.347,159.392 204.130,163.470 203.090 L 170.886 201.199 173.263 202.748 C 175.953 204.500,176.174 204.566,176.166 203.613 C 176.158 202.710,168.319 197.509,164.453 195.842 C 155.412 191.945,144.020 192.065,104.688 196.474 C 80.084 199.233,77.744 199.401,63.867 199.408 C 47.412 199.416,39.465 198.142,35.072 194.792 C 32.932 193.159,32.899 192.414,34.961 192.285 C 66.788 190.295,88.285 186.144,124.377 175.018 C 150.625 166.927,160.694 164.224,170.117 162.737 C 177.448 161.581,179.628 161.535,183.238 162.462 M273.506 209.498 C 271.464 211.671,275.362 213.460,277.753 211.448 L 279.004 210.395 277.957 209.494 C 276.570 208.302,274.628 208.303,273.506 209.498 M136.170 341.698 C 127.417 351.342,127.652 350.895,130.797 351.932 L 132.336 352.441 133.767 350.857 L 135.198 349.274 138.790 350.767 L 142.383 352.261 142.501 354.473 L 142.618 356.686 144.388 357.444 C 145.362 357.862,146.294 358.203,146.460 358.203 C 146.626 358.203,146.877 354.819,147.020 350.684 C 147.162 346.548,147.388 341.100,147.522 338.577 L 147.767 333.991 146.357 333.402 C 145.581 333.078,144.786 332.813,144.590 332.813 C 144.394 332.813,140.605 336.811,136.170 341.698 M254.131 333.429 C 253.288 333.738,252.529 334.060,252.445 334.144 C 252.361 334.228,253.276 337.062,254.479 340.443 C 255.681 343.824,256.586 346.669,256.491 346.765 C 256.395 346.860,253.461 344.741,249.972 342.054 L 243.627 337.169 241.833 337.854 C 240.701 338.286,240.084 338.743,240.161 339.093 C 240.423 340.284,247.355 359.588,247.622 359.871 C 248.022 360.295,251.563 358.917,251.563 358.337 C 251.563 358.074,250.599 355.179,249.421 351.903 C 248.244 348.628,247.329 345.900,247.388 345.841 C 247.447 345.782,250.363 347.942,253.868 350.640 L 260.241 355.547 261.966 355.063 C 262.916 354.798,263.778 354.442,263.882 354.273 C 264.190 353.774,256.579 332.810,256.101 332.840 C 255.861 332.855,254.974 333.120,254.131 333.429 M157.731 349.692 C 156.290 355.752,155.153 360.752,155.205 360.804 C 155.630 361.229,169.253 364.106,169.530 363.829 C 169.724 363.635,169.996 362.761,170.136 361.886 L 170.390 360.295 165.469 359.181 C 162.762 358.568,160.548 357.878,160.549 357.647 C 160.552 357.237,164.276 341.449,164.668 340.186 C 164.853 339.590,162.537 338.670,160.862 338.673 C 160.516 338.674,159.508 342.221,157.731 349.692 M143.168 345.958 L 142.915 348.361 140.500 347.384 C 139.172 346.846,138.020 346.343,137.939 346.266 C 137.858 346.189,139.001 344.773,140.478 343.120 L 143.164 340.114 143.293 341.834 C 143.364 342.781,143.308 344.636,143.168 345.958 M222.758 342.367 C 218.599 344.303,217.578 347.748,218.977 355.124 C 220.409 362.669,223.788 365.634,229.590 364.435 C 235.833 363.145,237.554 357.261,234.577 347.382 C 233.002 342.153,227.882 339.981,222.758 342.367 M180.700 344.193 C 180.317 346.565,178.940 365.399,179.135 365.594 C 179.499 365.957,189.716 366.517,191.132 366.252 C 195.800 365.376,197.668 359.530,194.419 355.963 L 193.624 355.089 194.668 354.122 C 196.556 352.372,197.032 349.514,195.850 347.024 C 194.583 344.354,192.644 343.657,185.085 343.156 L 180.912 342.879 180.700 344.193 M204.940 345.605 C 205.156 348.507,205.859 363.600,205.859 365.335 L 205.859 366.894 208.007 366.715 C 209.189 366.618,210.220 366.464,210.300 366.374 C 210.379 366.284,210.213 361.816,209.930 356.445 C 209.648 351.074,209.407 346.021,209.396 345.215 L 209.375 343.750 207.089 343.750 L 204.802 343.750 204.940 345.605 M228.687 346.145 C 230.221 347.352,231.639 352.450,231.640 356.768 C 231.641 360.067,227.388 361.900,225.203 359.542 C 223.669 357.887,222.191 349.722,223.050 347.649 C 223.953 345.469,226.847 344.697,228.687 346.145 M189.896 347.664 C 194.057 348.820,192.441 352.539,187.778 352.539 C 184.278 352.539,184.503 352.745,184.687 349.707 L 184.835 347.266 186.656 347.268 C 187.657 347.269,189.116 347.447,189.896 347.664 M190.715 357.729 C 191.823 358.837,191.741 360.894,190.551 361.858 C 189.787 362.477,184.137 362.585,183.759 361.987 C 183.733 361.947,183.796 360.706,183.897 359.229 L 184.082 356.544 186.993 356.731 C 189.255 356.876,190.085 357.099,190.715 357.729 " stroke="none" fill="#005daa" fill-rule="evenodd"></path><path id="path2" d="M196.973 24.900 C 198.638 24.973,201.362 24.973,203.027 24.900 C 204.692 24.827,203.330 24.767,200.000 24.767 C 196.670 24.767,195.308 24.827,196.973 24.900 M195.485 47.266 C 195.485 53.604,195.539 56.196,195.605 53.027 C 195.670 49.858,195.670 44.673,195.605 41.504 C 195.539 38.335,195.485 40.928,195.485 47.266 M213.063 47.266 C 213.063 53.604,213.117 56.196,213.183 53.027 C 213.248 49.858,213.248 44.673,213.183 41.504 C 213.117 38.335,213.063 40.928,213.063 47.266 M171.184 44.922 C 171.184 45.674,171.265 45.981,171.363 45.605 C 171.461 45.229,171.461 44.614,171.363 44.238 C 171.265 43.862,171.184 44.170,171.184 44.922 M74.780 67.285 L 73.633 68.555 74.902 67.407 C 76.086 66.338,76.351 66.016,76.050 66.016 C 75.982 66.016,75.411 66.587,74.780 67.285 M193.266 69.808 C 193.752 69.901,194.455 69.897,194.829 69.800 C 195.202 69.702,194.805 69.625,193.945 69.630 C 193.086 69.634,192.780 69.714,193.266 69.808 M205.566 69.801 C 205.942 69.899,206.558 69.899,206.934 69.801 C 207.310 69.702,207.002 69.622,206.250 69.622 C 205.498 69.622,205.190 69.702,205.566 69.801 M71.264 80.566 L 70.117 81.836 71.387 80.689 C 72.570 79.619,72.836 79.297,72.534 79.297 C 72.467 79.297,71.896 79.868,71.264 80.566 M303.885 92.480 L 302.539 93.945 304.004 92.599 C 305.367 91.346,305.648 91.016,305.350 91.016 C 305.285 91.016,304.626 91.675,303.885 92.480 M91.497 92.578 C 91.497 93.330,91.577 93.638,91.676 93.262 C 91.774 92.886,91.774 92.271,91.676 91.895 C 91.577 91.519,91.497 91.826,91.497 92.578 M109.161 105.957 L 107.617 107.617 109.277 106.073 C 110.821 104.637,111.117 104.297,110.821 104.297 C 110.758 104.297,110.011 105.044,109.161 105.957 M104.276 110.840 L 102.930 112.305 104.395 110.959 C 105.758 109.706,106.039 109.375,105.741 109.375 C 105.675 109.375,105.016 110.034,104.276 110.840 M177.832 161.999 C 178.423 162.088,179.390 162.088,179.980 161.999 C 180.571 161.909,180.088 161.836,178.906 161.836 C 177.725 161.836,177.241 161.909,177.832 161.999 M365.234 182.422 L 364.258 182.735 365.332 182.774 C 365.923 182.795,366.406 182.637,366.406 182.422 C 366.406 182.207,366.362 182.049,366.309 182.070 C 366.255 182.092,365.771 182.250,365.234 182.422 M16.903 193.750 C 16.903 194.717,16.979 195.112,17.073 194.629 C 17.166 194.146,17.166 193.354,17.073 192.871 C 16.979 192.388,16.903 192.783,16.903 193.750 M137.988 193.238 C 138.364 193.336,138.979 193.336,139.355 193.238 C 139.731 193.140,139.424 193.059,138.672 193.059 C 137.920 193.059,137.612 193.140,137.988 193.238 M331.341 194.531 C 331.341 195.283,331.421 195.591,331.519 195.215 C 331.618 194.839,331.618 194.224,331.519 193.848 C 331.421 193.472,331.341 193.779,331.341 194.531 M376.306 197.852 C 376.307 199.570,376.376 200.225,376.458 199.306 C 376.541 198.387,376.540 196.981,376.456 196.181 C 376.372 195.381,376.304 196.133,376.306 197.852 M54.785 199.488 C 55.161 199.586,55.776 199.586,56.152 199.488 C 56.528 199.390,56.221 199.309,55.469 199.309 C 54.717 199.309,54.409 199.390,54.785 199.488 M71.191 199.488 C 71.567 199.586,72.183 199.586,72.559 199.488 C 72.935 199.390,72.627 199.309,71.875 199.309 C 71.123 199.309,70.815 199.390,71.191 199.488 M68.480 203.320 C 68.483 204.609,68.556 205.090,68.642 204.388 C 68.729 203.685,68.728 202.631,68.638 202.044 C 68.549 201.457,68.478 202.031,68.480 203.320 M376.306 204.492 C 376.307 206.211,376.376 206.865,376.458 205.947 C 376.541 205.028,376.540 203.622,376.456 202.822 C 376.372 202.022,376.304 202.773,376.306 204.492 M331.341 207.813 C 331.341 208.564,331.421 208.872,331.519 208.496 C 331.618 208.120,331.618 207.505,331.519 207.129 C 331.421 206.753,331.341 207.061,331.341 207.813 M16.903 208.594 C 16.903 209.561,16.979 209.956,17.073 209.473 C 17.166 208.989,17.166 208.198,17.073 207.715 C 16.979 207.231,16.903 207.627,16.903 208.594 M122.378 209.664 C 123.621 209.742,125.554 209.741,126.674 209.662 C 127.795 209.584,126.777 209.520,124.414 209.521 C 122.051 209.522,121.134 209.586,122.378 209.664 M75.195 325.781 C 76.904 327.500,78.390 328.906,78.497 328.906 C 78.605 328.906,77.295 327.500,75.586 325.781 C 73.877 324.063,72.391 322.656,72.284 322.656 C 72.177 322.656,73.487 324.063,75.195 325.781 M70.313 330.664 C 72.345 332.705,74.096 334.375,74.203 334.375 C 74.311 334.375,72.736 332.705,70.703 330.664 C 68.671 328.623,66.920 326.953,66.812 326.953 C 66.705 326.953,68.280 328.623,70.313 330.664 M319.901 330.371 L 318.555 331.836 320.020 330.490 C 320.825 329.749,321.484 329.090,321.484 329.025 C 321.484 328.727,321.154 329.008,319.901 330.371 M197.770 332.712 C 199.229 332.787,201.514 332.787,202.848 332.711 C 204.182 332.635,202.988 332.573,200.195 332.574 C 197.402 332.574,196.311 332.637,197.770 332.712 M147.364 340.820 C 147.368 341.680,147.448 341.985,147.542 341.499 C 147.635 341.013,147.632 340.310,147.534 339.937 C 147.436 339.563,147.360 339.961,147.364 340.820 M204.778 345.703 C 204.778 346.455,204.859 346.763,204.957 346.387 C 205.055 346.011,205.055 345.396,204.957 345.020 C 204.859 344.644,204.778 344.951,204.778 345.703 M209.474 347.461 C 209.478 348.320,209.558 348.626,209.651 348.140 C 209.745 347.654,209.741 346.951,209.643 346.577 C 209.546 346.204,209.469 346.602,209.474 347.461 M218.059 349.219 C 218.059 349.971,218.140 350.278,218.238 349.902 C 218.336 349.526,218.336 348.911,218.238 348.535 C 218.140 348.159,218.059 348.467,218.059 349.219 M146.981 351.172 C 146.981 352.139,147.058 352.534,147.151 352.051 C 147.244 351.567,147.244 350.776,147.151 350.293 C 147.058 349.810,146.981 350.205,146.981 351.172 M205.177 353.711 C 205.181 354.570,205.261 354.876,205.354 354.390 C 205.448 353.904,205.444 353.201,205.347 352.827 C 205.249 352.454,205.172 352.852,205.177 353.711 M209.856 355.469 C 209.856 356.221,209.937 356.528,210.035 356.152 C 210.133 355.776,210.133 355.161,210.035 354.785 C 209.937 354.409,209.856 354.717,209.856 355.469 M205.567 361.914 C 205.572 362.773,205.652 363.079,205.745 362.593 C 205.838 362.107,205.835 361.404,205.737 361.031 C 205.639 360.657,205.563 361.055,205.567 361.914 M210.247 363.672 C 210.247 364.424,210.327 364.731,210.426 364.355 C 210.524 363.979,210.524 363.364,210.426 362.988 C 210.327 362.612,210.247 362.920,210.247 363.672 M191.313 384.261 C 191.799 384.354,192.502 384.351,192.876 384.253 C 193.249 384.155,192.852 384.079,191.992 384.083 C 191.133 384.087,190.827 384.167,191.313 384.261 M207.324 384.260 C 207.808 384.353,208.599 384.353,209.082 384.260 C 209.565 384.167,209.170 384.091,208.203 384.091 C 207.236 384.091,206.841 384.167,207.324 384.260 " stroke="none" fill="#5593c6" fill-rule="evenodd"></path><path id="path3" d="M197.381 17.869 C 199.056 17.942,201.693 17.942,203.241 17.868 C 204.788 17.794,203.418 17.734,200.195 17.734 C 196.973 17.735,195.706 17.795,197.381 17.869 M211.816 18.238 C 212.192 18.336,212.808 18.336,213.184 18.238 C 213.560 18.140,213.252 18.059,212.500 18.059 C 211.748 18.059,211.440 18.140,211.816 18.238 M208.124 42.421 C 208.060 45.987,208.140 48.985,208.301 49.085 C 208.462 49.184,208.594 46.266,208.594 42.601 C 208.594 34.068,208.275 33.945,208.124 42.421 M179.395 36.988 C 179.771 37.086,180.386 37.086,180.762 36.988 C 181.138 36.890,180.830 36.809,180.078 36.809 C 179.326 36.809,179.019 36.890,179.395 36.988 M175.880 45.508 C 175.884 46.367,175.964 46.673,176.058 46.187 C 176.151 45.701,176.147 44.998,176.050 44.624 C 175.952 44.251,175.875 44.648,175.880 45.508 M200.000 51.953 C 200.000 55.677,200.080 58.644,200.178 58.546 C 200.447 58.277,200.498 45.681,200.232 45.414 C 200.104 45.287,200.000 48.229,200.000 51.953 M188.763 50.781 C 188.763 51.533,188.843 51.841,188.941 51.465 C 189.039 51.089,189.039 50.474,188.941 50.098 C 188.843 49.722,188.763 50.029,188.763 50.781 M329.492 71.484 C 331.848 73.848,333.864 75.781,333.971 75.781 C 334.078 75.781,332.239 73.848,329.883 71.484 C 327.527 69.121,325.511 67.188,325.404 67.188 C 325.297 67.188,327.136 69.121,329.492 71.484 M207.910 69.801 C 208.286 69.899,208.901 69.899,209.277 69.801 C 209.653 69.702,209.346 69.622,208.594 69.622 C 207.842 69.622,207.534 69.702,207.910 69.801 M301.270 73.316 C 301.646 73.414,302.261 73.414,302.637 73.316 C 303.013 73.218,302.705 73.138,301.953 73.138 C 301.201 73.138,300.894 73.218,301.270 73.316 M75.391 76.367 C 73.790 77.979,72.568 79.297,72.676 79.297 C 72.783 79.297,74.181 77.979,75.781 76.367 C 77.382 74.756,78.603 73.438,78.496 73.438 C 78.389 73.438,76.991 74.756,75.391 76.367 M116.113 84.254 C 116.489 84.352,117.104 84.352,117.480 84.254 C 117.856 84.155,117.549 84.075,116.797 84.075 C 116.045 84.075,115.737 84.155,116.113 84.254 M81.811 92.285 L 80.664 93.555 81.934 92.407 C 83.117 91.338,83.383 91.016,83.081 91.016 C 83.014 91.016,82.442 91.587,81.811 92.285 M293.657 161.995 C 294.143 162.088,294.846 162.085,295.219 161.987 C 295.593 161.889,295.195 161.813,294.336 161.817 C 293.477 161.822,293.171 161.902,293.657 161.995 M297.754 161.988 C 298.130 162.086,298.745 162.086,299.121 161.988 C 299.497 161.890,299.189 161.809,298.438 161.809 C 297.686 161.809,297.378 161.890,297.754 161.988 M364.166 183.874 C 364.759 183.964,365.638 183.961,366.119 183.869 C 366.599 183.776,366.113 183.703,365.039 183.705 C 363.965 183.708,363.572 183.784,364.166 183.874 M16.888 191.016 C 16.888 191.768,16.968 192.075,17.066 191.699 C 17.164 191.323,17.164 190.708,17.066 190.332 C 16.968 189.956,16.888 190.264,16.888 191.016 M32.520 190.894 C 32.896 190.993,33.511 190.993,33.887 190.894 C 34.263 190.796,33.955 190.716,33.203 190.716 C 32.451 190.716,32.144 190.796,32.520 190.894 M23.935 193.750 C 23.935 194.717,24.011 195.112,24.104 194.629 C 24.197 194.146,24.197 193.354,24.104 192.871 C 24.011 192.388,23.935 192.783,23.935 193.750 M145.605 192.864 C 146.519 192.946,148.013 192.946,148.926 192.864 C 149.839 192.782,149.092 192.715,147.266 192.715 C 145.439 192.715,144.692 192.782,145.605 192.864 M383.362 201.172 C 383.362 204.717,383.421 206.167,383.494 204.395 C 383.566 202.622,383.566 199.722,383.494 197.949 C 383.421 196.177,383.362 197.627,383.362 201.172 M76.270 199.097 C 76.646 199.196,77.261 199.196,77.637 199.097 C 78.013 198.999,77.705 198.919,76.953 198.919 C 76.201 198.919,75.894 198.999,76.270 199.097 M57.715 199.501 C 58.413 199.588,59.556 199.588,60.254 199.501 C 60.952 199.415,60.381 199.344,58.984 199.344 C 57.588 199.344,57.017 199.415,57.715 199.501 M67.487 199.502 C 68.190 199.589,69.244 199.587,69.831 199.498 C 70.418 199.409,69.844 199.338,68.555 199.340 C 67.266 199.342,66.785 199.415,67.487 199.502 M53.613 201.051 C 53.989 201.149,54.604 201.149,54.980 201.051 C 55.356 200.952,55.049 200.872,54.297 200.872 C 53.545 200.872,53.237 200.952,53.613 201.051 M68.466 207.031 C 68.466 207.998,68.542 208.394,68.635 207.910 C 68.728 207.427,68.728 206.636,68.635 206.152 C 68.542 205.669,68.466 206.064,68.466 207.031 M23.940 208.398 C 23.943 209.473,24.019 209.866,24.108 209.272 C 24.198 208.678,24.196 207.799,24.103 207.319 C 24.010 206.838,23.937 207.324,23.940 208.398 M117.871 209.651 C 118.354 209.744,119.146 209.744,119.629 209.651 C 120.112 209.558,119.717 209.481,118.750 209.481 C 117.783 209.481,117.388 209.558,117.871 209.651 M129.400 209.655 C 129.994 209.745,130.873 209.743,131.353 209.650 C 131.833 209.557,131.348 209.484,130.273 209.487 C 129.199 209.490,128.806 209.566,129.400 209.655 M16.888 211.328 C 16.888 212.080,16.968 212.388,17.066 212.012 C 17.164 211.636,17.164 211.021,17.066 210.645 C 16.968 210.269,16.888 210.576,16.888 211.328 M375.872 211.719 C 375.872 212.471,375.952 212.778,376.051 212.402 C 376.149 212.026,376.149 211.411,376.051 211.035 C 375.952 210.659,375.872 210.967,375.872 211.719 M114.551 238.561 C 115.142 238.651,116.108 238.651,116.699 238.561 C 117.290 238.472,116.807 238.398,115.625 238.398 C 114.443 238.398,113.960 238.472,114.551 238.561 M324.601 325.684 L 321.289 329.102 324.707 325.790 C 327.882 322.714,328.303 322.266,328.019 322.266 C 327.960 322.266,326.422 323.804,324.601 325.684 M64.453 324.732 C 64.453 324.799,65.024 325.370,65.723 326.001 L 66.992 327.148 65.845 325.879 C 64.775 324.696,64.453 324.430,64.453 324.732 M329.297 331.055 C 328.348 332.021,327.660 332.813,327.767 332.813 C 327.874 332.813,328.739 332.021,329.688 331.055 C 330.636 330.088,331.325 329.297,331.217 329.297 C 331.110 329.297,330.246 330.088,329.297 331.055 M192.871 332.698 C 193.354 332.791,194.146 332.791,194.629 332.698 C 195.112 332.604,194.717 332.528,193.750 332.528 C 192.783 332.528,192.388 332.604,192.871 332.698 M205.766 332.698 C 206.252 332.792,206.955 332.788,207.329 332.690 C 207.702 332.592,207.305 332.516,206.445 332.520 C 205.586 332.525,205.280 332.605,205.766 332.698 M226.270 341.285 C 226.646 341.383,227.261 341.383,227.637 341.285 C 228.013 341.187,227.705 341.106,226.953 341.106 C 226.201 341.106,225.894 341.187,226.270 341.285 M147.377 343.945 C 147.380 345.020,147.456 345.413,147.546 344.819 C 147.636 344.225,147.633 343.346,147.541 342.866 C 147.448 342.385,147.374 342.871,147.377 343.945 M206.548 343.636 C 207.033 343.729,207.737 343.726,208.110 343.628 C 208.483 343.530,208.086 343.454,207.227 343.458 C 206.367 343.462,206.062 343.542,206.548 343.636 M209.466 344.922 C 209.466 345.674,209.546 345.981,209.644 345.605 C 209.743 345.229,209.743 344.614,209.644 344.238 C 209.546 343.862,209.466 344.170,209.466 344.922 M204.786 348.242 C 204.790 349.102,204.870 349.407,204.964 348.921 C 205.057 348.435,205.054 347.732,204.956 347.359 C 204.858 346.985,204.782 347.383,204.786 348.242 M196.575 350.000 C 196.575 350.752,196.655 351.060,196.754 350.684 C 196.852 350.308,196.852 349.692,196.754 349.316 C 196.655 348.940,196.575 349.248,196.575 350.000 M209.864 352.930 C 209.868 353.789,209.948 354.095,210.042 353.609 C 210.135 353.123,210.132 352.420,210.034 352.046 C 209.936 351.673,209.860 352.070,209.864 352.930 M146.981 354.297 C 146.981 355.264,147.058 355.659,147.151 355.176 C 147.244 354.692,147.244 353.901,147.151 353.418 C 147.058 352.935,146.981 353.330,146.981 354.297 M205.177 356.445 C 205.181 357.305,205.261 357.610,205.354 357.124 C 205.448 356.638,205.444 355.935,205.347 355.562 C 205.249 355.188,205.172 355.586,205.177 356.445 M210.255 361.133 C 210.259 361.992,210.339 362.298,210.433 361.812 C 210.526 361.326,210.522 360.623,210.425 360.249 C 210.327 359.876,210.250 360.273,210.255 361.133 M205.567 364.648 C 205.572 365.508,205.652 365.813,205.745 365.327 C 205.838 364.842,205.835 364.138,205.737 363.765 C 205.639 363.392,205.563 363.789,205.567 364.648 M191.309 377.229 C 191.792 377.322,192.583 377.322,193.066 377.229 C 193.550 377.136,193.154 377.060,192.188 377.060 C 191.221 377.060,190.825 377.136,191.309 377.229 M206.934 377.229 C 207.417 377.322,208.208 377.322,208.691 377.229 C 209.175 377.136,208.779 377.060,207.813 377.060 C 206.846 377.060,206.450 377.136,206.934 377.229 M188.770 384.254 C 189.146 384.352,189.761 384.352,190.137 384.254 C 190.513 384.155,190.205 384.075,189.453 384.075 C 188.701 384.075,188.394 384.155,188.770 384.254 " stroke="none" fill="#99bedd" fill-rule="evenodd"></path><path id="path4" d="M298.047 212.767 C 298.047 215.599,295.187 216.762,285.311 217.945 C 279.439 218.648,279.211 219.247,284.606 219.794 C 289.830 220.322,292.138 221.006,294.150 222.619 C 295.482 223.687,295.609 223.711,298.056 223.353 C 301.296 222.879,310.659 223.261,314.453 224.021 C 316.064 224.344,317.427 224.609,317.480 224.609 C 318.634 224.614,316.308 219.845,314.321 218.130 C 310.294 214.654,298.047 210.618,298.047 212.767 " stroke="none" fill="#fdb913" fill-rule="evenodd"></path></g></svg>